<?xml version="1.0" encoding="UTF-8"?><svg xmlns="http://www.w3.org/2000/svg" xmlns:xlink="http://www.w3.org/1999/xlink" width="375pt" zoomAndPan="magnify" viewBox="0 0 375 374.999991" height="50" preserveAspectRatio="xMidYMid meet" version="1.2"><defs><g/></defs><g xml:id="surface1" id="surface1"><g style="fill:rgb(12.159729%,27.059937%,38.819885%);fill-opacity:1;"><g transform="translate(256.43631, 208.29674)"><path style="stroke:none;" d="M 26.753906 -41.464844 C 27.746094 -41.464844 28.277344 -42 28.277344 -42.988281 L 28.277344 -50.308594 C 28.277344 -51.296875 27.746094 -51.832031 26.753906 -51.832031 L 3.582031 -51.832031 C 2.589844 -51.832031 2.058594 -51.296875 2.058594 -50.308594 L 2.058594 -42.988281 C 2.058594 -42 2.589844 -41.464844 3.582031 -41.464844 L 17.796875 -41.464844 C 12.804688 -39.519531 9.453125 -34.261719 9.453125 -26.296875 L 9.453125 -10.367188 L 3.582031 -10.367188 C 2.589844 -10.367188 2.058594 -9.832031 2.058594 -8.84375 L 2.058594 -1.523438 C 2.058594 -0.535156 2.589844 0 3.582031 0 L 26.753906 0 C 27.746094 0 28.277344 -0.535156 28.277344 -1.523438 L 28.277344 -8.84375 C 28.277344 -9.832031 27.746094 -10.367188 26.753906 -10.367188 L 20.886719 -10.367188 L 20.886719 -41.464844 Z M 26.753906 -41.464844 "/></g></g><g style="fill:rgb(12.159729%,27.059937%,38.819885%);fill-opacity:1;"><g transform="translate(286.771357, 208.29674)"><path style="stroke:none;" d="M 17.988281 0 C 37.273438 0 46.039062 -11.28125 46.039062 -25.914062 C 46.039062 -40.550781 37.195312 -51.832031 17.988281 -51.832031 L 5.640625 -51.832031 C 4.648438 -51.832031 4.117188 -51.296875 4.117188 -50.308594 L 4.117188 -1.523438 C 4.117188 -0.535156 4.648438 0 5.640625 0 Z M 15.550781 -41.464844 L 19.054688 -41.464844 C 30.183594 -41.464844 34.605469 -34.527344 34.605469 -25.914062 C 34.605469 -17.300781 30.109375 -10.367188 19.054688 -10.367188 L 15.550781 -10.367188 Z M 15.550781 -41.464844 "/></g></g><path style=" stroke:none;fill-rule:nonzero;fill:rgb(12.159729%,27.059937%,38.819885%);fill-opacity:1;" d="M 251.359375 140.769531 L 251.359375 224.769531 L 339.859375 224.769531 L 339.859375 140.769531 Z M 337.183594 222.09375 L 253.976562 222.09375 L 253.976562 143.390625 L 337.183594 143.390625 Z M 337.183594 222.09375 "/><g style="fill:rgb(49.409485%,85.099792%,34.118652%);fill-opacity:1;"><g transform="translate(27.951909, 209.953112)"><path style="stroke:none;" d="M 65.847656 -26.203125 C 62.460938 -16.726562 60.042969 -10.828125 57.820312 -10.828125 C 56.949219 -10.828125 56.273438 -11.507812 56.273438 -13.054688 C 56.273438 -17.984375 57.820312 -27.265625 57.820312 -31.425781 C 57.820312 -37.710938 53.566406 -41.964844 46.507812 -41.964844 C 41.382812 -41.964844 37.613281 -39.449219 34.613281 -34.132812 C 32.777344 -37.324219 29.199219 -39.546875 25.332031 -39.546875 C 20.789062 -39.546875 17.402344 -37.226562 14.601562 -32.585938 C 14.792969 -35.097656 14.988281 -36.546875 14.988281 -36.839844 C 14.988281 -40.609375 11.699219 -42.542969 8.507812 -42.542969 C 5.414062 -42.542969 2.222656 -40.804688 1.933594 -37.417969 C 1.257812 -30.070312 0.484375 -19.339844 0.484375 -4.835938 C 0.484375 -0.773438 3.769531 1.257812 7.058594 1.257812 C 10.25 1.257812 13.535156 -0.773438 13.535156 -4.835938 L 13.535156 -9.089844 C 13.921875 -20.691406 17.789062 -27.847656 22.238281 -27.847656 C 23.398438 -27.847656 23.980469 -27.265625 23.980469 -25.914062 C 23.980469 -23.300781 21.851562 -17.015625 21.851562 -10.539062 C 21.851562 -1.449219 23.882812 0.96875 29.199219 0.96875 C 32.679688 0.96875 35.195312 -0.386719 35.195312 -4.15625 C 35.195312 -5.898438 34.808594 -9.960938 34.808594 -10.925781 C 34.808594 -12.472656 34.808594 -13.921875 34.90625 -15.277344 C 35.582031 -24.558594 38.578125 -30.070312 42.542969 -30.070312 C 43.992188 -30.070312 44.765625 -29.296875 44.765625 -27.558594 C 44.765625 -25.042969 43.125 -17.886719 43.125 -12.183594 C 43.125 -3.289062 47.570312 1.0625 55.402344 1.0625 C 62.269531 1.0625 68.457031 -4.449219 74.933594 -22.820312 C 75.128906 -23.398438 75.226562 -24.074219 75.226562 -24.65625 C 75.226562 -27.460938 72.710938 -29.394531 70.101562 -29.394531 C 68.359375 -29.394531 66.621094 -28.425781 65.847656 -26.203125 Z M 65.847656 -26.203125 "/></g></g><g style="fill:rgb(49.409485%,85.099792%,34.118652%);fill-opacity:1;"><g transform="translate(93.693915, 209.953112)"><path style="stroke:none;" d="M 10.441406 -44.863281 C 14.695312 -44.863281 18.082031 -48.25 18.082031 -52.503906 C 18.082031 -56.757812 14.695312 -60.140625 10.441406 -60.140625 C 6.1875 -60.140625 2.804688 -56.757812 2.804688 -52.503906 C 2.804688 -48.25 6.1875 -44.863281 10.441406 -44.863281 Z M 13.632812 1.449219 C 20.980469 1.449219 27.265625 -3.964844 34.035156 -22.820312 C 34.226562 -23.300781 34.324219 -23.882812 34.324219 -24.367188 C 34.324219 -26.976562 31.519531 -28.910156 28.910156 -28.910156 C 27.265625 -28.910156 25.621094 -28.136719 24.945312 -26.203125 C 21.753906 -17.210938 18.082031 -10.636719 15.566406 -10.636719 C 14.214844 -10.636719 12.957031 -11.988281 12.957031 -17.113281 C 12.957031 -21.851562 14.695312 -32.972656 14.890625 -35 C 15.375 -39.738281 12.085938 -42.15625 8.605469 -42.15625 C 5.609375 -42.15625 2.609375 -40.320312 1.933594 -36.355469 C 1.0625 -30.941406 -0.0976562 -21.851562 -0.0976562 -16.726562 C -0.0976562 -5.125 4.929688 1.449219 13.632812 1.449219 Z M 13.632812 1.449219 "/></g></g><g style="fill:rgb(49.409485%,85.099792%,34.118652%);fill-opacity:1;"><g transform="translate(118.540416, 209.953112)"><path style="stroke:none;" d="M 44.285156 -26.203125 C 40.898438 -16.726562 38.097656 -10.828125 36.257812 -10.828125 C 35.484375 -10.828125 35 -11.507812 35 -13.054688 C 35 -17.984375 36.546875 -27.265625 36.546875 -31.425781 C 36.546875 -37.710938 32.292969 -41.964844 25.621094 -41.964844 C 21.367188 -41.964844 17.789062 -39.835938 14.890625 -35.292969 C 14.890625 -36.160156 14.988281 -36.644531 14.988281 -36.839844 C 14.988281 -40.609375 11.699219 -42.542969 8.507812 -42.542969 C 5.414062 -42.542969 2.222656 -40.804688 1.933594 -37.417969 C 1.257812 -30.070312 0.484375 -19.339844 0.484375 -4.835938 C 0.484375 -0.773438 3.769531 1.257812 7.058594 1.257812 C 10.25 1.257812 13.535156 -0.773438 13.535156 -4.835938 C 13.535156 -8.796875 13.632812 -12.375 13.632812 -15.566406 C 14.40625 -24.753906 17.402344 -30.070312 21.273438 -30.070312 C 22.722656 -30.070312 23.496094 -29.296875 23.496094 -27.558594 C 23.496094 -25.042969 21.851562 -17.886719 21.851562 -11.121094 C 21.851562 -3.289062 26.300781 1.0625 33.839844 1.0625 C 41.285156 1.0625 47.28125 -4.738281 53.371094 -22.820312 C 53.566406 -23.300781 53.566406 -23.785156 53.566406 -24.269531 C 53.566406 -26.976562 50.859375 -28.910156 48.25 -28.910156 C 46.605469 -28.910156 44.960938 -28.136719 44.285156 -26.203125 Z M 44.285156 -26.203125 "/></g></g><g style="fill:rgb(49.409485%,85.099792%,34.118652%);fill-opacity:1;"><g transform="translate(162.722858, 209.953112)"><path style="stroke:none;" d="M 29.007812 -26.203125 C 25.429688 -16.242188 20.691406 -10.539062 17.402344 -10.539062 C 15.179688 -10.539062 13.535156 -12.183594 13.535156 -18.082031 C 13.535156 -21.464844 14.214844 -26.007812 15.375 -33.359375 L 16.148438 -38.289062 C 18.660156 -38 20.691406 -37.710938 22.046875 -37.710938 C 25.429688 -37.710938 27.363281 -40.511719 27.363281 -43.316406 C 27.363281 -45.734375 25.816406 -48.25 22.335938 -48.828125 C 20.886719 -49.023438 19.242188 -49.3125 17.597656 -49.503906 C 18.175781 -54.4375 18.660156 -58.789062 18.660156 -60.722656 C 18.660156 -64.394531 15.375 -66.425781 12.183594 -66.425781 C 8.992188 -66.425781 5.800781 -64.492188 5.609375 -60.527344 C 5.511719 -58.015625 5.125 -54.4375 4.542969 -50.472656 L 4.449219 -50.472656 C 0.484375 -50.472656 -1.449219 -47.667969 -1.449219 -44.863281 C -1.449219 -42.351562 0.0976562 -39.933594 3.09375 -39.351562 C 2.804688 -37.902344 2.609375 -36.453125 2.417969 -35.097656 C 1.355469 -28.332031 0.484375 -21.464844 0.484375 -17.015625 C 0.484375 -5.316406 6.671875 1.355469 15.277344 1.355469 C 24.074219 1.355469 31.8125 -5.027344 38.097656 -22.914062 C 38.289062 -23.496094 38.386719 -24.074219 38.386719 -24.558594 C 38.386719 -27.363281 35.773438 -29.296875 33.261719 -29.296875 C 31.519531 -29.296875 29.78125 -28.425781 29.007812 -26.203125 Z M 29.007812 -26.203125 "/></g></g><g style="fill:rgb(49.409485%,85.099792%,34.118652%);fill-opacity:1;"><g transform="translate(191.6299, 209.953112)"><path style="stroke:none;" d="M 45.25 -26.203125 C 43.316406 -20.5 40.03125 -14.40625 35.871094 -9.574219 C 36.453125 -17.789062 37.226562 -27.945312 38 -36.066406 C 38.386719 -40.320312 35.386719 -42.445312 31.90625 -42.445312 C 28.136719 -42.445312 25.332031 -40.707031 25.042969 -37.128906 C 24.847656 -34.519531 24.65625 -31.714844 24.367188 -28.71875 C 23.207031 -18.660156 20.304688 -12.957031 16.050781 -12.957031 C 13.828125 -12.957031 12.761719 -14.019531 12.761719 -16.726562 C 12.761719 -21.367188 15.179688 -28.8125 15.179688 -34.710938 C 15.179688 -39.738281 11.214844 -43.992188 5.316406 -43.992188 C 1.546875 -43.992188 -0.871094 -41.867188 -0.871094 -38.773438 C -0.871094 -35.484375 1.933594 -34.90625 1.933594 -32.875 C 1.933594 -29.972656 -0.386719 -20.886719 -0.386719 -13.246094 C -0.386719 -5.898438 5.125 -0.96875 12.085938 -0.96875 C 16.050781 -0.96875 19.53125 -2.609375 22.722656 -5.703125 L 22.433594 -1.933594 C 13.535156 2.222656 4.929688 5.996094 4.929688 15.179688 C 4.929688 21.175781 9.378906 25.527344 17.597656 25.527344 C 26.976562 25.527344 33.746094 18.855469 34.90625 4.542969 C 34.90625 4.351562 34.90625 4.15625 35 3.867188 C 44.1875 -2.609375 50.472656 -11.699219 54.339844 -22.820312 C 54.53125 -23.496094 54.628906 -24.074219 54.628906 -24.65625 C 54.628906 -27.558594 52.117188 -29.394531 49.601562 -29.394531 C 47.765625 -29.394531 46.023438 -28.425781 45.25 -26.203125 Z M 18.371094 14.601562 C 17.308594 14.601562 16.824219 14.117188 16.824219 13.246094 C 16.824219 12.085938 18.566406 10.925781 21.273438 9.476562 C 20.59375 13.054688 19.628906 14.601562 18.371094 14.601562 Z M 18.371094 14.601562 "/></g></g></g></svg>